<?xml version="1.0" encoding="UTF-8"?>
<svg id="Layer_1" data-name="Layer 1" xmlns="http://www.w3.org/2000/svg" width="449.11" height="86.88" viewBox="0 0 449.11 86.88">
  <defs>
    <style>
      .cls-1 {
        letter-spacing: 0em;
      }

      .cls-2 {
        fill: #168ab2;
      }

      .cls-3, .cls-4 {
        fill: #3e3e3e;
      }

      .cls-5 {
        letter-spacing: 0em;
      }

      .cls-6 {
        letter-spacing: 0em;
      }

      .cls-7 {
        fill: #ffd115;
      }

      .cls-7, .cls-4 {
        font-family: Montserrat-Regular, Montserrat;
        font-size: 75px;
      }

      .cls-8 {
        letter-spacing: -.01em;
      }
    </style>
  </defs>
  <rect class="cls-3" x="181.74" width="267.37" height="77.65" rx="5" ry="5"/>
  <text class="cls-7" transform="translate(192.31 67.23)"><tspan class="cls-6" x="0" y="0">k</tspan><tspan class="cls-1" x="44.48" y="0">n</tspan><tspan class="cls-8" x="95.4" y="0">o</tspan><tspan class="cls-5" x="141.3" y="0">w</tspan><tspan x="206.77" y="0">s</tspan></text>
  <path class="cls-2" d="m31.74,0C14.33,0,0,17.25,0,38.22s14.33,38.22,31.74,38.22c2.56,0,5.12-.37,7.6-1.11l-1.63-7.95c-1.96.58-3.96.89-5.97.89-13.69,0-24.96-13.57-24.96-30.05S18.05,8.17,31.74,8.17s24.96,13.57,24.96,30.05c0,5.03-1.06,9.97-3.05,14.37l5.97,3.91c2.54-5.61,3.87-11.9,3.87-18.28C63.49,17.25,49.16,0,31.74,0Z"/>
  <path class="cls-2" d="m38.2,59.58c4.86,4.23,13.18,10.37,25.02,14.31,17.11,5.69,31.97,3.61,38.91,2.18-5.49.38-19.88.9-33.02-4.63-1.48-.62-6.29-2.82-11.9-6.78-6.76-4.77-11.44-9.87-14.44-13.65-1.52,2.86-3.04,5.71-4.56,8.57Z"/>
  <text class="cls-4" transform="translate(65.99 67.23)"><tspan x="0" y="0">u!z</tspan></text>
</svg>